<svg version="1.1" viewBox="0.0 0.0 960.0 720.0" fill="none" stroke="none" stroke-linecap="square" stroke-miterlimit="10" xmlns:xlink="http://www.w3.org/1999/xlink" xmlns="http://www.w3.org/2000/svg"><clipPath id="p.0"><path d="m0 0l960.0 0l0 720.0l-960.0 0l0 -720.0z" clip-rule="nonzero"/></clipPath><g clip-path="url(#p.0)"><defs><linearGradient id="p.1" gradientUnits="userSpaceOnUse" gradientTransform="matrix(26.833012888328938 0.0 0.0 26.833012888328938 0.0 0.0)" spreadMethod="pad" x1="35.77682476415287" y1="26.833012889947636" x2="35.777118209237884" y2="3.223248572355839E-9"><stop offset="0.0" stop-color="#783f04"/><stop offset="0.24" stop-color="#38761d"/><stop offset="0.46" stop-color="#1155cc"/><stop offset="0.58" stop-color="#3c78d8"/><stop offset="0.75" stop-color="#6d9eeb"/><stop offset="1.0" stop-color="#c9daf8"/></linearGradient></defs><path fill="url(#p.1)" d="m0 0l960.0 0l0 720.0l-960.0 0z" fill-rule="evenodd"/><defs><linearGradient id="p.2" gradientUnits="userSpaceOnUse" gradientTransform="matrix(18.5672800764669 0.0 0.0 18.5672800764669 0.0 0.0)" spreadMethod="pad" x1="-13.803366375295054" y1="10.518774709322031" x2="-13.803433742200966" y2="29.086054785666718"><stop offset="0.0" stop-color="#f2f2f2"/><stop offset="1.0" stop-color="#a6a6a6"/></linearGradient></defs><path fill="url(#p.2)" d="m-142.85393 512.1732c212.32 18.391113 1115.2924 52.260742 1271.4819 0c156.18945 -52.26071 -236.52295 -285.97812 -334.34485 -313.5643c-97.82184 -27.586166 -168.79718 126.28479 -252.58624 148.04724c-83.78906 21.762482 -135.65005 -26.667542 -250.1482 -17.472443c-114.49817 9.195099 -364.4403 42.144806 -436.84076 72.64307c-72.40045 30.49823 -209.88194 91.95538 2.4380493 110.346436z" fill-rule="evenodd"/><defs><linearGradient id="p.3" gradientUnits="userSpaceOnUse" gradientTransform="matrix(8.630686697647391 0.0 0.0 8.630686697647391 0.0 0.0)" spreadMethod="pad" x1="19.393114110372107" y1="57.79961794196136" x2="10.762427412981094" y2="57.799551418056396"><stop offset="0.0" stop-color="#664f3d"/><stop offset="0.36" stop-color="#704c26"/><stop offset="0.61" stop-color="#783f04"/><stop offset="1.0" stop-color="#664f3d"/></linearGradient></defs><path fill="url(#p.3)" d="m92.88714 576.07874l18.622047 -77.22833l37.244095 0l18.622055 77.22833z" fill-rule="evenodd"/><path fill="#38761d" d="m49.29748 411.0795l0 0c-1.5272713 -12.38678 3.4870605 -24.648956 12.915234 -31.583221c9.428177 -6.934265 21.616692 -7.3244934 31.393509 -1.0050964l0 0c3.4632492 -7.2022095 9.802002 -12.174835 17.098907 -13.413757c7.296913 -1.2389221 14.694931 1.4013672 19.956291 7.1222534l0 0c2.9502563 -6.5299683 8.743103 -10.917297 15.322952 -11.605103c6.5798645 -0.68777466 13.015503 2.4212646 17.023254 8.223907l0 0c5.3300323 -6.921753 13.810272 -9.83609 21.77124 -7.481964c7.9609833 2.3540955 13.972839 9.553864 15.434219 18.483887l0 0c6.5302124 1.9658203 11.969727 6.9631653 14.9131775 13.700897c2.943451 6.7377014 3.102066 14.554871 0.4348755 21.431732l0 0c6.4303436 9.23642 7.9345703 21.543793 3.9513092 32.329285c-3.983261 10.785492 -12.855545 18.42865 -23.305893 20.07724c-0.07366943 10.122559 -5.1039124 19.410889 -13.151886 24.284882c-8.047974 4.873993 -17.856934 4.5725403 -25.646088 -0.7881775l0 0c-3.3177795 12.123505 -12.656189 21.043884 -23.980698 22.907166c-11.324516 1.8632812 -22.604996 -3.6645203 -28.96785 -14.195221l0 0c-7.79953 5.190613 -17.158318 6.6858826 -25.965202 4.148468c-8.806892 -2.5374146 -16.320038 -8.893768 -20.84462 -17.635162l0 0c-7.9701424 1.0293274 -15.676163 -3.527954 -19.293598 -11.410034c-3.6174393 -7.8821106 -2.3762207 -17.411133 3.1076393 -23.85785l0 0c-7.1095695 -4.6181335 -10.737303 -13.782013 -8.991474 -22.713074c1.7458267 -8.931061 8.469601 -15.605469 16.665138 -16.542755z" fill-rule="evenodd"/><path fill="#000000" fill-opacity="0.0" d="m41.46627 450.81274l0 0c3.3550262 2.1793213 7.2308693 3.1679077 11.107136 2.8330383m5.077076 32.43564c1.666935 -0.215271 3.30085 -0.6711731 4.859604 -1.355896m41.94789 14.8420105c-1.1724167 -1.9403687 -2.1540222 -4.0138245 -2.928093 -6.1850586m55.878654 -2.5272522l0 0c0.60487366 -2.2102966 0.99679565 -4.4851685 1.1691895 -6.7866516m37.62732 -16.709198c0.07841492 -10.777039 -5.4679413 -20.644592 -14.256744 -25.364258m33.611145 -27.041107c-1.4233246 3.6697693 -3.5961761 6.9252014 -6.3482056 9.510986m-8.998505 -44.644592l0 0c0.24250793 1.4819336 0.3547516 2.9861755 0.33514404 4.491791m-37.539978 -15.493256l0 0c-1.3295898 1.726654 -2.4249878 3.656128 -3.2520905 5.7283936m-29.094406 -2.3479614l0 0c-0.7085571 1.5682678 -1.2376556 3.2278137 -1.575119 4.9403076m-35.480637 1.3513184l0 0c2.0687637 1.3371887 3.9826584 2.9466248 5.6996307 4.7929688m-50.0078 27.795532l0 0c0.210495 1.7072144 0.54309464 3.393402 0.9946747 5.042755" fill-rule="evenodd"/><defs><linearGradient id="p.4" gradientUnits="userSpaceOnUse" gradientTransform="matrix(11.194806647266908 0.0 0.0 11.194806647266908 0.0 0.0)" spreadMethod="pad" x1="65.52727794293843" y1="42.167393342515766" x2="54.3324712959886" y2="42.16730908545805"><stop offset="0.0" stop-color="#664f3d"/><stop offset="0.36" stop-color="#704c26"/><stop offset="0.61" stop-color="#783f04"/><stop offset="1.0" stop-color="#664f3d"/></linearGradient></defs><path fill="url(#p.4)" d="m608.2415 599.0479l31.330688 -126.99213l62.661438 0l31.330688 126.99213z" fill-rule="evenodd"/><g filter="url(#shadowFilter-p.5)"><use xlink:href="#p.5" transform="matrix(1.0 0.0 0.0 1.0 0.0 4.0)"/></g><defs><filter id="shadowFilter-p.5" filterUnits="userSpaceOnUse"><feGaussianBlur in="SourceAlpha" stdDeviation="7.0" result="blur"/><feComponentTransfer in="blur" color-interpolation-filters="sRGB"><feFuncR type="linear" slope="0" intercept="0.0"/><feFuncG type="linear" slope="0" intercept="0.0"/><feFuncB type="linear" slope="0" intercept="0.0"/><feFuncA type="linear" slope="0.14" intercept="0"/></feComponentTransfer></filter></defs><g id="p.5"><defs><linearGradient id="p.6" gradientUnits="userSpaceOnUse" gradientTransform="matrix(7.228375014356366 0.0 0.0 7.228375014356366 0.0 0.0)" spreadMethod="pad" x1="94.55617485816899" y1="25.215456161580015" x2="94.55614649045245" y2="32.44383117588072"><stop offset="0.0" stop-color="#efefef"/><stop offset="1.0" stop-color="#f3f3f3"/></linearGradient></defs><path fill="url(#p.6)" d="m752.6305 182.28279c30.662903 -0.86709595 129.91907 35.263718 119.10736 43.356964c-10.811707 8.093262 -164.1264 12.428757 -183.9776 5.202591c-19.851257 -7.226166 34.207275 -47.692444 64.87024 -48.559555z" fill-rule="evenodd"/></g><path fill="#38761d" d="m796.0692 412.2508l0 0c2.5697632 20.367828 -5.8672485 40.53073 -21.730774 51.93286c-15.863586 11.40213 -36.371582 12.043793 -52.821777 1.65271l0 0c-5.8271484 11.842712 -16.492493 20.019287 -28.77008 22.056458c-12.277527 2.0371704 -24.72522 -2.3042908 -33.57782 -11.711212l0 0c-4.9639893 10.737335 -14.710876 17.951477 -25.781921 19.082428c-11.071106 1.1309509 -21.899536 -3.9813232 -28.642822 -13.522705l0 0c-8.96814 11.381561 -23.236755 16.173676 -36.63159 12.302765c-13.394897 -3.8709106 -23.510315 -15.709625 -25.969177 -30.393433l0 0c-10.987488 -3.2323914 -20.139893 -11.4496155 -25.092407 -22.528595c-4.9525757 -11.078949 -5.219452 -23.932861 -0.7317505 -35.24063l0 0c-10.819489 -15.187561 -13.350433 -35.424835 -6.648346 -53.159607c6.702118 -17.734741 21.63034 -30.302551 39.213776 -33.013336c0.1239624 -16.644714 8.5877075 -31.917694 22.128967 -39.9321c13.54126 -8.014374 30.045532 -7.5186768 43.151306 1.2960205l0 0c5.5823975 -19.934906 21.294922 -34.602844 40.349182 -37.666687c19.054321 -3.0638428 38.034485 6.02565 48.740417 23.341492l0 0c13.12323 -8.535034 28.870056 -10.993713 43.688232 -6.821411c14.818237 4.172333 27.459595 14.624176 35.07251 28.997803l0 0c13.410339 -1.6925354 26.376282 5.801056 32.46283 18.76175c6.086609 12.960663 3.998169 28.629425 -5.228821 39.22989l0 0c11.962341 7.5936584 18.066284 22.662018 15.128784 37.347504c-2.9375 14.685486 -14.250671 25.66034 -28.040222 27.201569z" fill-rule="evenodd"/><path fill="#000000" fill-opacity="0.0" d="m809.2458 346.9167l0 0c-5.6450806 -3.5834656 -12.166443 -5.209015 -18.688538 -4.658386m-8.5425415 -53.334534c-2.8047485 0.3540039 -5.553894 1.1036072 -8.176636 2.2295227m-70.5802 -24.404999c1.9726562 3.1906128 3.6242676 6.6000366 4.926697 10.170197m-94.019714 4.155609l0 0c-1.0177002 3.63443 -1.677124 7.375061 -1.9672241 11.159454m-63.310547 27.47522c-0.13195801 17.720856 9.200195 33.94626 23.987976 41.70691m-56.5531 44.464172c2.3948364 -6.0342712 6.0507812 -11.387207 10.681274 -15.639099m15.140625 73.40991l0 0c-0.40802002 -2.4367676 -0.5968628 -4.910187 -0.5639038 -7.3859253m63.163635 25.47583l0 0c2.2370605 -2.8391113 4.0802 -6.0118103 5.471863 -9.419281m48.95331 3.8608093l0 0c1.1921997 -2.5787659 2.0824585 -5.3075256 2.6502686 -8.123474m59.69861 -2.2219543l0 0c-3.480835 -2.198761 -6.701111 -4.8451843 -9.590027 -7.8811646m84.1416 -45.704712l0 0c-0.354187 -2.8072205 -0.91381836 -5.579834 -1.673645 -8.29187" fill-rule="evenodd"/></g></svg>